<svg id="Layer_1" viewBox="0 0 24 24" xmlns="http://www.w3.org/2000/svg" data-name="Layer 1"><path d="m22.5 18c0-.46-.089-.895-.218-1.312l1.417-.816-.999-1.732-1.41.813c-.605-.652-1.393-1.126-2.289-1.331v-1.621h-2v1.621c-.896.205-1.685.678-2.289 1.331l-1.41-.813-.999 1.732 1.417.816c-.129.418-.218.853-.218 1.312s.089.895.218 1.312l-1.417.816.999 1.732 1.41-.813c.605.652 1.393 1.126 2.289 1.331v1.621h2v-1.621c.896-.205 1.685-.678 2.289-1.331l1.41.813.999-1.732-1.417-.816c.129-.418.218-.853.218-1.312zm-4.5 1.5c-.827 0-1.5-.673-1.5-1.5s.673-1.5 1.5-1.5 1.5.673 1.5 1.5-.673 1.5-1.5 1.5zm-18-8.933v-2.167c1.876 1.596 4.92 2.6 8.5 2.6s6.624-1.004 8.5-2.6v1.669c-2.455.307-4.559 1.724-5.802 3.735-.841.124-1.745.196-2.698.196-4.865 0-8.5-1.812-8.5-3.433zm0-6.067c0-2.485 3.806-4.5 8.5-4.5s8.5 2.015 8.5 4.5-3.806 4.5-8.5 4.5-8.5-2.015-8.5-4.5zm0 11.066v-1.74c1.876 1.334 4.92 2.174 8.5 2.174.614 0 1.204-.033 1.783-.081-.179.665-.283 1.36-.283 2.081 0 .316.023.627.059.933-.504.041-1.022.067-1.559.067-4.865 0-8.5-1.812-8.5-3.434zm10.549 5.329c.395 1.016.987 1.932 1.736 2.697-1.183.27-2.485.408-3.784.408-4.224 0-8.5-1.447-8.5-4.214v-.96c1.876 1.334 4.92 2.174 8.5 2.174.708 0 1.387-.042 2.049-.105z"/></svg>